M48
; DRILL file {KiCad 8.0.3+1} date 2024-08-19T06:56:22+0000
; FORMAT={-:-/ absolute / inch / decimal}
; #@! TF.CreationDate,2024-08-19T06:56:22+00:00
; #@! TF.GenerationSoftware,Kicad,Pcbnew,8.0.3+1
; #@! TF.FileFunction,Plated,1,2,PTH
FMAT,2
INCH
; #@! TA.AperFunction,Plated,PTH,ViaDrill
T1C0.0118
; #@! TA.AperFunction,Plated,PTH,ComponentDrill
T2C0.0315
; #@! TA.AperFunction,Plated,PTH,ComponentDrill
T3C0.0394
%
G90
G05
T1
X4.5Y-2.9213
X4.7Y-3.0
X5.2002Y-3.2002
T2
X4.6Y-2.75
X4.6Y-3.25
X4.8Y-2.75
X4.8Y-3.25
X5.0Y-2.75
X5.0Y-3.25
T3
X5.4Y-2.8002
X5.4Y-2.9002
X5.4Y-3.0002
X5.4Y-3.1002
X5.4Y-3.2002
X5.6Y-2.8002
X5.6Y-2.9002
X5.6Y-3.0002
X5.6Y-3.1002
X5.6Y-3.2002
X5.8Y-2.8002
X5.8Y-2.9002
X5.8Y-3.0002
X5.8Y-3.1002
X5.8Y-3.2002
X6.0Y-2.8002
X6.0Y-2.9002
X6.0Y-3.0002
X6.0Y-3.1002
X6.0Y-3.2002
M30
