G04 #@! TF.GenerationSoftware,KiCad,Pcbnew,8.0.3+1*
G04 #@! TF.CreationDate,2024-08-16T11:58:03+00:00*
G04 #@! TF.ProjectId,DDT_i2c_proto_breakboard,4444545f-6932-4635-9f70-726f746f5f62,rev?*
G04 #@! TF.SameCoordinates,Original*
G04 #@! TF.FileFunction,Copper,L1,Top*
G04 #@! TF.FilePolarity,Positive*
%FSLAX46Y46*%
G04 Gerber Fmt 4.6, Leading zero omitted, Abs format (unit mm)*
G04 Created by KiCad (PCBNEW 8.0.3+1) date 2024-08-16 11:58:03*
%MOMM*%
%LPD*%
G01*
G04 APERTURE LIST*
G04 #@! TA.AperFunction,ComponentPad*
%ADD10R,1.700000X1.700000*%
G04 #@! TD*
G04 #@! TA.AperFunction,ComponentPad*
%ADD11O,1.700000X1.700000*%
G04 #@! TD*
G04 #@! TA.AperFunction,ComponentPad*
%ADD12C,1.600000*%
G04 #@! TD*
G04 #@! TA.AperFunction,ComponentPad*
%ADD13O,1.600000X1.600000*%
G04 #@! TD*
G04 #@! TA.AperFunction,ViaPad*
%ADD14C,0.600000*%
G04 #@! TD*
G04 #@! TA.AperFunction,Conductor*
%ADD15C,0.500000*%
G04 #@! TD*
G04 APERTURE END LIST*
D10*
X142240000Y-71125000D03*
D11*
X142240000Y-73665000D03*
X142240000Y-76205000D03*
X142240000Y-78745000D03*
X142240000Y-81285000D03*
D10*
X147320000Y-71125000D03*
D11*
X147320000Y-73665000D03*
X147320000Y-76205000D03*
X147320000Y-78745000D03*
X147320000Y-81285000D03*
D10*
X137160000Y-71125000D03*
D11*
X137160000Y-73665000D03*
X137160000Y-76205000D03*
X137160000Y-78745000D03*
X137160000Y-81285000D03*
D12*
X121920000Y-69850000D03*
D13*
X121920000Y-82550000D03*
D12*
X127000000Y-69850000D03*
D13*
X127000000Y-82550000D03*
D12*
X116840000Y-69850000D03*
D13*
X116840000Y-82550000D03*
D10*
X152400000Y-71125000D03*
D11*
X152400000Y-73665000D03*
X152400000Y-76205000D03*
X152400000Y-78745000D03*
X152400000Y-81285000D03*
G04 #@! TA.AperFunction,SMDPad,CuDef*
G36*
G01*
X108030000Y-71700000D02*
X111030000Y-71700000D01*
G75*
G02*
X111280000Y-71950000I0J-250000D01*
G01*
X111280000Y-72450000D01*
G75*
G02*
X111030000Y-72700000I-250000J0D01*
G01*
X108030000Y-72700000D01*
G75*
G02*
X107780000Y-72450000I0J250000D01*
G01*
X107780000Y-71950000D01*
G75*
G02*
X108030000Y-71700000I250000J0D01*
G01*
G37*
G04 #@! TD.AperFunction*
G04 #@! TA.AperFunction,SMDPad,CuDef*
G36*
G01*
X108030000Y-73700000D02*
X111030000Y-73700000D01*
G75*
G02*
X111280000Y-73950000I0J-250000D01*
G01*
X111280000Y-74450000D01*
G75*
G02*
X111030000Y-74700000I-250000J0D01*
G01*
X108030000Y-74700000D01*
G75*
G02*
X107780000Y-74450000I0J250000D01*
G01*
X107780000Y-73950000D01*
G75*
G02*
X108030000Y-73700000I250000J0D01*
G01*
G37*
G04 #@! TD.AperFunction*
G04 #@! TA.AperFunction,SMDPad,CuDef*
G36*
G01*
X108030000Y-75700000D02*
X111030000Y-75700000D01*
G75*
G02*
X111280000Y-75950000I0J-250000D01*
G01*
X111280000Y-76450000D01*
G75*
G02*
X111030000Y-76700000I-250000J0D01*
G01*
X108030000Y-76700000D01*
G75*
G02*
X107780000Y-76450000I0J250000D01*
G01*
X107780000Y-75950000D01*
G75*
G02*
X108030000Y-75700000I250000J0D01*
G01*
G37*
G04 #@! TD.AperFunction*
G04 #@! TA.AperFunction,SMDPad,CuDef*
G36*
G01*
X108030000Y-77700000D02*
X111030000Y-77700000D01*
G75*
G02*
X111280000Y-77950000I0J-250000D01*
G01*
X111280000Y-78450000D01*
G75*
G02*
X111030000Y-78700000I-250000J0D01*
G01*
X108030000Y-78700000D01*
G75*
G02*
X107780000Y-78450000I0J250000D01*
G01*
X107780000Y-77950000D01*
G75*
G02*
X108030000Y-77700000I250000J0D01*
G01*
G37*
G04 #@! TD.AperFunction*
G04 #@! TA.AperFunction,SMDPad,CuDef*
G36*
G01*
X108030000Y-79700000D02*
X111030000Y-79700000D01*
G75*
G02*
X111280000Y-79950000I0J-250000D01*
G01*
X111280000Y-80450000D01*
G75*
G02*
X111030000Y-80700000I-250000J0D01*
G01*
X108030000Y-80700000D01*
G75*
G02*
X107780000Y-80450000I0J250000D01*
G01*
X107780000Y-79950000D01*
G75*
G02*
X108030000Y-79700000I250000J0D01*
G01*
G37*
G04 #@! TD.AperFunction*
G04 #@! TA.AperFunction,SMDPad,CuDef*
G36*
G01*
X102330001Y-69100000D02*
X105229999Y-69100000D01*
G75*
G02*
X105480000Y-69350001I0J-250001D01*
G01*
X105480000Y-70349999D01*
G75*
G02*
X105229999Y-70600000I-250001J0D01*
G01*
X102330001Y-70600000D01*
G75*
G02*
X102080000Y-70349999I0J250001D01*
G01*
X102080000Y-69350001D01*
G75*
G02*
X102330001Y-69100000I250001J0D01*
G01*
G37*
G04 #@! TD.AperFunction*
G04 #@! TA.AperFunction,SMDPad,CuDef*
G36*
G01*
X102330001Y-81800000D02*
X105229999Y-81800000D01*
G75*
G02*
X105480000Y-82050001I0J-250001D01*
G01*
X105480000Y-83049999D01*
G75*
G02*
X105229999Y-83300000I-250001J0D01*
G01*
X102330001Y-83300000D01*
G75*
G02*
X102080000Y-83049999I0J250001D01*
G01*
X102080000Y-82050001D01*
G75*
G02*
X102330001Y-81800000I250001J0D01*
G01*
G37*
G04 #@! TD.AperFunction*
D14*
X119380000Y-76200000D03*
X114300000Y-74200000D03*
X132085000Y-81285000D03*
D15*
X116840000Y-69850000D02*
X121920000Y-69850000D01*
X132085000Y-71125000D02*
X137160000Y-71125000D01*
X113220000Y-72200000D02*
X115570000Y-69850000D01*
X137160000Y-71125000D02*
X142240000Y-71125000D01*
X142240000Y-71125000D02*
X147320000Y-71125000D01*
X130810000Y-69850000D02*
X132085000Y-71125000D01*
X147320000Y-71125000D02*
X152400000Y-71125000D01*
X109530000Y-72200000D02*
X113220000Y-72200000D01*
X115570000Y-69850000D02*
X116840000Y-69850000D01*
X127000000Y-69850000D02*
X130810000Y-69850000D01*
X121920000Y-69850000D02*
X127000000Y-69850000D01*
X142240000Y-76205000D02*
X147320000Y-76205000D01*
X119380000Y-76200000D02*
X137155000Y-76200000D01*
X137160000Y-76205000D02*
X142240000Y-76205000D01*
X147320000Y-76205000D02*
X152400000Y-76205000D01*
X109530000Y-76200000D02*
X119380000Y-76200000D01*
X137155000Y-76200000D02*
X137160000Y-76205000D01*
X132080000Y-73660000D02*
X134620000Y-73660000D01*
X134625000Y-73665000D02*
X137160000Y-73665000D01*
X114300000Y-74200000D02*
X131540000Y-74200000D01*
X109530000Y-74200000D02*
X114300000Y-74200000D01*
X142240000Y-73665000D02*
X137160000Y-73665000D01*
X147320000Y-73665000D02*
X142240000Y-73665000D01*
X152400000Y-73665000D02*
X147320000Y-73665000D01*
X134620000Y-73660000D02*
X134625000Y-73665000D01*
X131540000Y-74200000D02*
X132080000Y-73660000D01*
X132085000Y-81285000D02*
X152400000Y-81285000D01*
X109530000Y-80200000D02*
X131000000Y-80200000D01*
X131000000Y-80200000D02*
X132085000Y-81285000D01*
G04 #@! TA.AperFunction,Conductor*
G36*
X141119338Y-76975185D02*
G01*
X141153873Y-77008376D01*
X141201505Y-77076401D01*
X141368597Y-77243493D01*
X141368603Y-77243498D01*
X141554594Y-77373730D01*
X141598219Y-77428307D01*
X141605413Y-77497805D01*
X141573890Y-77560160D01*
X141554595Y-77576880D01*
X141368922Y-77706890D01*
X141368920Y-77706891D01*
X141201891Y-77873920D01*
X141201886Y-77873926D01*
X141066400Y-78067420D01*
X141066399Y-78067422D01*
X140966570Y-78281507D01*
X140966567Y-78281513D01*
X140909364Y-78494999D01*
X140909364Y-78495000D01*
X141806988Y-78495000D01*
X141774075Y-78552007D01*
X141740000Y-78679174D01*
X141740000Y-78810826D01*
X141774075Y-78937993D01*
X141806988Y-78995000D01*
X140909364Y-78995000D01*
X140966567Y-79208486D01*
X140966570Y-79208492D01*
X141066399Y-79422578D01*
X141201894Y-79616082D01*
X141368917Y-79783105D01*
X141554595Y-79913119D01*
X141598219Y-79967696D01*
X141605412Y-80037195D01*
X141573890Y-80099549D01*
X141554595Y-80116269D01*
X141368594Y-80246508D01*
X141201506Y-80413596D01*
X141153874Y-80481623D01*
X141099297Y-80525248D01*
X141052299Y-80534500D01*
X138347701Y-80534500D01*
X138280662Y-80514815D01*
X138246126Y-80481623D01*
X138198494Y-80413597D01*
X138031402Y-80246506D01*
X138031401Y-80246505D01*
X137845405Y-80116269D01*
X137801781Y-80061692D01*
X137794588Y-79992193D01*
X137826110Y-79929839D01*
X137845405Y-79913119D01*
X138031082Y-79783105D01*
X138198105Y-79616082D01*
X138333600Y-79422578D01*
X138433429Y-79208492D01*
X138433432Y-79208486D01*
X138490636Y-78995000D01*
X137593012Y-78995000D01*
X137625925Y-78937993D01*
X137660000Y-78810826D01*
X137660000Y-78679174D01*
X137625925Y-78552007D01*
X137593012Y-78495000D01*
X138490636Y-78495000D01*
X138490635Y-78494999D01*
X138433432Y-78281513D01*
X138433429Y-78281507D01*
X138333600Y-78067422D01*
X138333599Y-78067420D01*
X138198113Y-77873926D01*
X138198108Y-77873920D01*
X138031078Y-77706890D01*
X137845405Y-77576879D01*
X137801780Y-77522302D01*
X137794588Y-77452804D01*
X137826110Y-77390449D01*
X137845406Y-77373730D01*
X138031401Y-77243495D01*
X138198495Y-77076401D01*
X138246127Y-77008376D01*
X138300704Y-76964751D01*
X138347701Y-76955500D01*
X141052299Y-76955500D01*
X141119338Y-76975185D01*
G37*
G04 #@! TD.AperFunction*
G04 #@! TA.AperFunction,Conductor*
G36*
X146199338Y-76975185D02*
G01*
X146233873Y-77008376D01*
X146281505Y-77076401D01*
X146448597Y-77243493D01*
X146448603Y-77243498D01*
X146634594Y-77373730D01*
X146678219Y-77428307D01*
X146685413Y-77497805D01*
X146653890Y-77560160D01*
X146634595Y-77576880D01*
X146448922Y-77706890D01*
X146448920Y-77706891D01*
X146281891Y-77873920D01*
X146281886Y-77873926D01*
X146146400Y-78067420D01*
X146146399Y-78067422D01*
X146046570Y-78281507D01*
X146046567Y-78281513D01*
X145989364Y-78494999D01*
X145989364Y-78495000D01*
X146886988Y-78495000D01*
X146854075Y-78552007D01*
X146820000Y-78679174D01*
X146820000Y-78810826D01*
X146854075Y-78937993D01*
X146886988Y-78995000D01*
X145989364Y-78995000D01*
X146046567Y-79208486D01*
X146046570Y-79208492D01*
X146146399Y-79422578D01*
X146281894Y-79616082D01*
X146448917Y-79783105D01*
X146634595Y-79913119D01*
X146678219Y-79967696D01*
X146685412Y-80037195D01*
X146653890Y-80099549D01*
X146634595Y-80116269D01*
X146448594Y-80246508D01*
X146281506Y-80413596D01*
X146233874Y-80481623D01*
X146179297Y-80525248D01*
X146132299Y-80534500D01*
X143427701Y-80534500D01*
X143360662Y-80514815D01*
X143326126Y-80481623D01*
X143278494Y-80413597D01*
X143111402Y-80246506D01*
X143111401Y-80246505D01*
X142925405Y-80116269D01*
X142881781Y-80061692D01*
X142874588Y-79992193D01*
X142906110Y-79929839D01*
X142925405Y-79913119D01*
X143111082Y-79783105D01*
X143278105Y-79616082D01*
X143413600Y-79422578D01*
X143513429Y-79208492D01*
X143513432Y-79208486D01*
X143570636Y-78995000D01*
X142673012Y-78995000D01*
X142705925Y-78937993D01*
X142740000Y-78810826D01*
X142740000Y-78679174D01*
X142705925Y-78552007D01*
X142673012Y-78495000D01*
X143570636Y-78495000D01*
X143570635Y-78494999D01*
X143513432Y-78281513D01*
X143513429Y-78281507D01*
X143413600Y-78067422D01*
X143413599Y-78067420D01*
X143278113Y-77873926D01*
X143278108Y-77873920D01*
X143111078Y-77706890D01*
X142925405Y-77576879D01*
X142881780Y-77522302D01*
X142874588Y-77452804D01*
X142906110Y-77390449D01*
X142925406Y-77373730D01*
X143111401Y-77243495D01*
X143278495Y-77076401D01*
X143326127Y-77008376D01*
X143380704Y-76964751D01*
X143427701Y-76955500D01*
X146132299Y-76955500D01*
X146199338Y-76975185D01*
G37*
G04 #@! TD.AperFunction*
G04 #@! TA.AperFunction,Conductor*
G36*
X151279338Y-76975185D02*
G01*
X151313873Y-77008376D01*
X151361505Y-77076401D01*
X151528597Y-77243493D01*
X151528603Y-77243498D01*
X151714594Y-77373730D01*
X151758219Y-77428307D01*
X151765413Y-77497805D01*
X151733890Y-77560160D01*
X151714595Y-77576880D01*
X151528922Y-77706890D01*
X151528920Y-77706891D01*
X151361891Y-77873920D01*
X151361886Y-77873926D01*
X151226400Y-78067420D01*
X151226399Y-78067422D01*
X151126570Y-78281507D01*
X151126567Y-78281513D01*
X151069364Y-78494999D01*
X151069364Y-78495000D01*
X151966988Y-78495000D01*
X151934075Y-78552007D01*
X151900000Y-78679174D01*
X151900000Y-78810826D01*
X151934075Y-78937993D01*
X151966988Y-78995000D01*
X151069364Y-78995000D01*
X151126567Y-79208486D01*
X151126570Y-79208492D01*
X151226399Y-79422578D01*
X151361894Y-79616082D01*
X151528917Y-79783105D01*
X151714595Y-79913119D01*
X151758219Y-79967696D01*
X151765412Y-80037195D01*
X151733890Y-80099549D01*
X151714595Y-80116269D01*
X151528594Y-80246508D01*
X151361506Y-80413596D01*
X151313874Y-80481623D01*
X151259297Y-80525248D01*
X151212299Y-80534500D01*
X148507701Y-80534500D01*
X148440662Y-80514815D01*
X148406126Y-80481623D01*
X148358494Y-80413597D01*
X148191402Y-80246506D01*
X148191401Y-80246505D01*
X148005405Y-80116269D01*
X147961781Y-80061692D01*
X147954588Y-79992193D01*
X147986110Y-79929839D01*
X148005405Y-79913119D01*
X148191082Y-79783105D01*
X148358105Y-79616082D01*
X148493600Y-79422578D01*
X148593429Y-79208492D01*
X148593432Y-79208486D01*
X148650636Y-78995000D01*
X147753012Y-78995000D01*
X147785925Y-78937993D01*
X147820000Y-78810826D01*
X147820000Y-78679174D01*
X147785925Y-78552007D01*
X147753012Y-78495000D01*
X148650636Y-78495000D01*
X148650635Y-78494999D01*
X148593432Y-78281513D01*
X148593429Y-78281507D01*
X148493600Y-78067422D01*
X148493599Y-78067420D01*
X148358113Y-77873926D01*
X148358108Y-77873920D01*
X148191078Y-77706890D01*
X148005405Y-77576879D01*
X147961780Y-77522302D01*
X147954588Y-77452804D01*
X147986110Y-77390449D01*
X148005406Y-77373730D01*
X148191401Y-77243495D01*
X148358495Y-77076401D01*
X148406127Y-77008376D01*
X148460704Y-76964751D01*
X148507701Y-76955500D01*
X151212299Y-76955500D01*
X151279338Y-76975185D01*
G37*
G04 #@! TD.AperFunction*
G04 #@! TA.AperFunction,Conductor*
G36*
X154382539Y-66560185D02*
G01*
X154428294Y-66612989D01*
X154439500Y-66664500D01*
X154439500Y-85735500D01*
X154419815Y-85802539D01*
X154367011Y-85848294D01*
X154315500Y-85859500D01*
X102224500Y-85859500D01*
X102157461Y-85839815D01*
X102111706Y-85787011D01*
X102100500Y-85735500D01*
X102100500Y-83918973D01*
X102120185Y-83851934D01*
X102172989Y-83806179D01*
X102237104Y-83795615D01*
X102280017Y-83799999D01*
X102280027Y-83800000D01*
X103530000Y-83800000D01*
X104030000Y-83800000D01*
X105279973Y-83800000D01*
X105279985Y-83799999D01*
X105382689Y-83789506D01*
X105382696Y-83789505D01*
X105549118Y-83734358D01*
X105549123Y-83734356D01*
X105698344Y-83642315D01*
X105822315Y-83518344D01*
X105914356Y-83369123D01*
X105914358Y-83369118D01*
X105969505Y-83202696D01*
X105969506Y-83202689D01*
X105979999Y-83099985D01*
X105980000Y-83099972D01*
X105980000Y-82800000D01*
X104030000Y-82800000D01*
X104030000Y-83800000D01*
X103530000Y-83800000D01*
X103530000Y-82549998D01*
X115534532Y-82549998D01*
X115534532Y-82550001D01*
X115554364Y-82776686D01*
X115554366Y-82776697D01*
X115613258Y-82996488D01*
X115613261Y-82996497D01*
X115709431Y-83202732D01*
X115709432Y-83202734D01*
X115839954Y-83389141D01*
X116000858Y-83550045D01*
X116000861Y-83550047D01*
X116187266Y-83680568D01*
X116393504Y-83776739D01*
X116613308Y-83835635D01*
X116775230Y-83849801D01*
X116839998Y-83855468D01*
X116840000Y-83855468D01*
X116840002Y-83855468D01*
X116896673Y-83850509D01*
X117066692Y-83835635D01*
X117286496Y-83776739D01*
X117492734Y-83680568D01*
X117679139Y-83550047D01*
X117840047Y-83389139D01*
X117970568Y-83202734D01*
X118066739Y-82996496D01*
X118125635Y-82776692D01*
X118145468Y-82550000D01*
X118145468Y-82549998D01*
X120614532Y-82549998D01*
X120614532Y-82550001D01*
X120634364Y-82776686D01*
X120634366Y-82776697D01*
X120693258Y-82996488D01*
X120693261Y-82996497D01*
X120789431Y-83202732D01*
X120789432Y-83202734D01*
X120919954Y-83389141D01*
X121080858Y-83550045D01*
X121080861Y-83550047D01*
X121267266Y-83680568D01*
X121473504Y-83776739D01*
X121693308Y-83835635D01*
X121855230Y-83849801D01*
X121919998Y-83855468D01*
X121920000Y-83855468D01*
X121920002Y-83855468D01*
X121976673Y-83850509D01*
X122146692Y-83835635D01*
X122366496Y-83776739D01*
X122572734Y-83680568D01*
X122759139Y-83550047D01*
X122920047Y-83389139D01*
X123050568Y-83202734D01*
X123146739Y-82996496D01*
X123205635Y-82776692D01*
X123225468Y-82550000D01*
X123225468Y-82549998D01*
X125694532Y-82549998D01*
X125694532Y-82550001D01*
X125714364Y-82776686D01*
X125714366Y-82776697D01*
X125773258Y-82996488D01*
X125773261Y-82996497D01*
X125869431Y-83202732D01*
X125869432Y-83202734D01*
X125999954Y-83389141D01*
X126160858Y-83550045D01*
X126160861Y-83550047D01*
X126347266Y-83680568D01*
X126553504Y-83776739D01*
X126773308Y-83835635D01*
X126935230Y-83849801D01*
X126999998Y-83855468D01*
X127000000Y-83855468D01*
X127000002Y-83855468D01*
X127056673Y-83850509D01*
X127226692Y-83835635D01*
X127446496Y-83776739D01*
X127652734Y-83680568D01*
X127839139Y-83550047D01*
X128000047Y-83389139D01*
X128130568Y-83202734D01*
X128226739Y-82996496D01*
X128285635Y-82776692D01*
X128305468Y-82550000D01*
X128285635Y-82323308D01*
X128226739Y-82103504D01*
X128130568Y-81897266D01*
X128000047Y-81710861D01*
X128000045Y-81710858D01*
X127839141Y-81549954D01*
X127652734Y-81419432D01*
X127652732Y-81419431D01*
X127446497Y-81323261D01*
X127446488Y-81323258D01*
X127226697Y-81264366D01*
X127226693Y-81264365D01*
X127226692Y-81264365D01*
X127226691Y-81264364D01*
X127226686Y-81264364D01*
X127000002Y-81244532D01*
X126999998Y-81244532D01*
X126773313Y-81264364D01*
X126773302Y-81264366D01*
X126553511Y-81323258D01*
X126553502Y-81323261D01*
X126347267Y-81419431D01*
X126347265Y-81419432D01*
X126160858Y-81549954D01*
X125999954Y-81710858D01*
X125869432Y-81897265D01*
X125869431Y-81897267D01*
X125773261Y-82103502D01*
X125773258Y-82103511D01*
X125714366Y-82323302D01*
X125714364Y-82323313D01*
X125694532Y-82549998D01*
X123225468Y-82549998D01*
X123205635Y-82323308D01*
X123146739Y-82103504D01*
X123050568Y-81897266D01*
X122920047Y-81710861D01*
X122920045Y-81710858D01*
X122759141Y-81549954D01*
X122572734Y-81419432D01*
X122572732Y-81419431D01*
X122366497Y-81323261D01*
X122366488Y-81323258D01*
X122146697Y-81264366D01*
X122146693Y-81264365D01*
X122146692Y-81264365D01*
X122146691Y-81264364D01*
X122146686Y-81264364D01*
X121920002Y-81244532D01*
X121919998Y-81244532D01*
X121693313Y-81264364D01*
X121693302Y-81264366D01*
X121473511Y-81323258D01*
X121473502Y-81323261D01*
X121267267Y-81419431D01*
X121267265Y-81419432D01*
X121080858Y-81549954D01*
X120919954Y-81710858D01*
X120789432Y-81897265D01*
X120789431Y-81897267D01*
X120693261Y-82103502D01*
X120693258Y-82103511D01*
X120634366Y-82323302D01*
X120634364Y-82323313D01*
X120614532Y-82549998D01*
X118145468Y-82549998D01*
X118125635Y-82323308D01*
X118066739Y-82103504D01*
X117970568Y-81897266D01*
X117840047Y-81710861D01*
X117840045Y-81710858D01*
X117679141Y-81549954D01*
X117492734Y-81419432D01*
X117492732Y-81419431D01*
X117286497Y-81323261D01*
X117286488Y-81323258D01*
X117066697Y-81264366D01*
X117066693Y-81264365D01*
X117066692Y-81264365D01*
X117066691Y-81264364D01*
X117066686Y-81264364D01*
X116840002Y-81244532D01*
X116839998Y-81244532D01*
X116613313Y-81264364D01*
X116613302Y-81264366D01*
X116393511Y-81323258D01*
X116393502Y-81323261D01*
X116187267Y-81419431D01*
X116187265Y-81419432D01*
X116000858Y-81549954D01*
X115839954Y-81710858D01*
X115709432Y-81897265D01*
X115709431Y-81897267D01*
X115613261Y-82103502D01*
X115613258Y-82103511D01*
X115554366Y-82323302D01*
X115554364Y-82323313D01*
X115534532Y-82549998D01*
X103530000Y-82549998D01*
X103530000Y-82300000D01*
X104030000Y-82300000D01*
X105980000Y-82300000D01*
X105980000Y-82000027D01*
X105979999Y-82000014D01*
X105969506Y-81897310D01*
X105969505Y-81897303D01*
X105914358Y-81730881D01*
X105914356Y-81730876D01*
X105822315Y-81581655D01*
X105698344Y-81457684D01*
X105549123Y-81365643D01*
X105549118Y-81365641D01*
X105382696Y-81310494D01*
X105382689Y-81310493D01*
X105279985Y-81300000D01*
X104030000Y-81300000D01*
X104030000Y-82300000D01*
X103530000Y-82300000D01*
X103530000Y-81300000D01*
X102280009Y-81300000D01*
X102237101Y-81304384D01*
X102168408Y-81291614D01*
X102117524Y-81243733D01*
X102100500Y-81181026D01*
X102100500Y-71899983D01*
X107279500Y-71899983D01*
X107279500Y-72500001D01*
X107279501Y-72500019D01*
X107290000Y-72602796D01*
X107290001Y-72602799D01*
X107345185Y-72769331D01*
X107345187Y-72769336D01*
X107353587Y-72782954D01*
X107437288Y-72918656D01*
X107561344Y-73042712D01*
X107617017Y-73077051D01*
X107645243Y-73094461D01*
X107691967Y-73146409D01*
X107703190Y-73215372D01*
X107675346Y-73279454D01*
X107645243Y-73305539D01*
X107561342Y-73357289D01*
X107437289Y-73481342D01*
X107345187Y-73630663D01*
X107345186Y-73630666D01*
X107290001Y-73797203D01*
X107290001Y-73797204D01*
X107290000Y-73797204D01*
X107279500Y-73899983D01*
X107279500Y-74500001D01*
X107279501Y-74500019D01*
X107290000Y-74602796D01*
X107290001Y-74602799D01*
X107345185Y-74769331D01*
X107345187Y-74769336D01*
X107380069Y-74825888D01*
X107437288Y-74918656D01*
X107561344Y-75042712D01*
X107645243Y-75094461D01*
X107691967Y-75146409D01*
X107703190Y-75215372D01*
X107675346Y-75279454D01*
X107645243Y-75305539D01*
X107561342Y-75357289D01*
X107437289Y-75481342D01*
X107345187Y-75630663D01*
X107345186Y-75630666D01*
X107290001Y-75797203D01*
X107290001Y-75797204D01*
X107290000Y-75797204D01*
X107279500Y-75899983D01*
X107279500Y-76500001D01*
X107279501Y-76500019D01*
X107290000Y-76602796D01*
X107290001Y-76602799D01*
X107311827Y-76668664D01*
X107345186Y-76769334D01*
X107415190Y-76882830D01*
X107437289Y-76918657D01*
X107561344Y-77042712D01*
X107645718Y-77094754D01*
X107692443Y-77146702D01*
X107703666Y-77215664D01*
X107675822Y-77279747D01*
X107645720Y-77305831D01*
X107561656Y-77357682D01*
X107437684Y-77481654D01*
X107345643Y-77630875D01*
X107345641Y-77630880D01*
X107290494Y-77797302D01*
X107290493Y-77797309D01*
X107280000Y-77900013D01*
X107280000Y-77950000D01*
X111779999Y-77950000D01*
X111779999Y-77900028D01*
X111779998Y-77900013D01*
X111769505Y-77797302D01*
X111714358Y-77630880D01*
X111714356Y-77630875D01*
X111622315Y-77481654D01*
X111498344Y-77357683D01*
X111498340Y-77357680D01*
X111414280Y-77305831D01*
X111367555Y-77253883D01*
X111356334Y-77184921D01*
X111384177Y-77120839D01*
X111414278Y-77094756D01*
X111498656Y-77042712D01*
X111554549Y-76986819D01*
X111615872Y-76953334D01*
X111642230Y-76950500D01*
X119080028Y-76950500D01*
X119120982Y-76957457D01*
X119171644Y-76975185D01*
X119200745Y-76985368D01*
X119200750Y-76985369D01*
X119379996Y-77005565D01*
X119380000Y-77005565D01*
X119380004Y-77005565D01*
X119559249Y-76985369D01*
X119559252Y-76985368D01*
X119559255Y-76985368D01*
X119639017Y-76957457D01*
X119679972Y-76950500D01*
X135968798Y-76950500D01*
X136035837Y-76970185D01*
X136070372Y-77003376D01*
X136121505Y-77076401D01*
X136288597Y-77243493D01*
X136288603Y-77243498D01*
X136474594Y-77373730D01*
X136518219Y-77428307D01*
X136525413Y-77497805D01*
X136493890Y-77560160D01*
X136474595Y-77576880D01*
X136288922Y-77706890D01*
X136288920Y-77706891D01*
X136121891Y-77873920D01*
X136121886Y-77873926D01*
X135986400Y-78067420D01*
X135986399Y-78067422D01*
X135886570Y-78281507D01*
X135886567Y-78281513D01*
X135829364Y-78494999D01*
X135829364Y-78495000D01*
X136726988Y-78495000D01*
X136694075Y-78552007D01*
X136660000Y-78679174D01*
X136660000Y-78810826D01*
X136694075Y-78937993D01*
X136726988Y-78995000D01*
X135829364Y-78995000D01*
X135886567Y-79208486D01*
X135886570Y-79208492D01*
X135986399Y-79422578D01*
X136121894Y-79616082D01*
X136288917Y-79783105D01*
X136474595Y-79913119D01*
X136518219Y-79967696D01*
X136525412Y-80037195D01*
X136493890Y-80099549D01*
X136474595Y-80116269D01*
X136288594Y-80246508D01*
X136121506Y-80413596D01*
X136073874Y-80481623D01*
X136019297Y-80525248D01*
X135972299Y-80534500D01*
X132447230Y-80534500D01*
X132380191Y-80514815D01*
X132359549Y-80498181D01*
X131478421Y-79617052D01*
X131478414Y-79617046D01*
X131404729Y-79567812D01*
X131404729Y-79567813D01*
X131355491Y-79534913D01*
X131218917Y-79478343D01*
X131218907Y-79478340D01*
X131073920Y-79449500D01*
X131073918Y-79449500D01*
X111642230Y-79449500D01*
X111575191Y-79429815D01*
X111554549Y-79413181D01*
X111498657Y-79357289D01*
X111498656Y-79357288D01*
X111414279Y-79305244D01*
X111367556Y-79253297D01*
X111356333Y-79184334D01*
X111384177Y-79120252D01*
X111414281Y-79094167D01*
X111498343Y-79042317D01*
X111622315Y-78918345D01*
X111714356Y-78769124D01*
X111714358Y-78769119D01*
X111769505Y-78602697D01*
X111769506Y-78602690D01*
X111779999Y-78499986D01*
X111780000Y-78499973D01*
X111780000Y-78450000D01*
X107280001Y-78450000D01*
X107280001Y-78499986D01*
X107290494Y-78602697D01*
X107345641Y-78769119D01*
X107345643Y-78769124D01*
X107437684Y-78918345D01*
X107561654Y-79042315D01*
X107645719Y-79094167D01*
X107692443Y-79146115D01*
X107703666Y-79215078D01*
X107675822Y-79279160D01*
X107645719Y-79305244D01*
X107561347Y-79357285D01*
X107561343Y-79357288D01*
X107437289Y-79481342D01*
X107345187Y-79630663D01*
X107345186Y-79630666D01*
X107290001Y-79797203D01*
X107290001Y-79797204D01*
X107290000Y-79797204D01*
X107279500Y-79899983D01*
X107279500Y-80500001D01*
X107279501Y-80500019D01*
X107290000Y-80602796D01*
X107290001Y-80602799D01*
X107345185Y-80769331D01*
X107345187Y-80769336D01*
X107377266Y-80821344D01*
X107437288Y-80918656D01*
X107561344Y-81042712D01*
X107710666Y-81134814D01*
X107877203Y-81189999D01*
X107979991Y-81200500D01*
X111080008Y-81200499D01*
X111182797Y-81189999D01*
X111349334Y-81134814D01*
X111498656Y-81042712D01*
X111554549Y-80986819D01*
X111615872Y-80953334D01*
X111642230Y-80950500D01*
X130637770Y-80950500D01*
X130704809Y-80970185D01*
X130725451Y-80986819D01*
X131331692Y-81593060D01*
X131354356Y-81629129D01*
X131356188Y-81628247D01*
X131359207Y-81634516D01*
X131359211Y-81634522D01*
X131455184Y-81787262D01*
X131582738Y-81914816D01*
X131659152Y-81962830D01*
X131718329Y-82000014D01*
X131735478Y-82010789D01*
X131905745Y-82070368D01*
X131905750Y-82070369D01*
X132084996Y-82090565D01*
X132085000Y-82090565D01*
X132085004Y-82090565D01*
X132264249Y-82070369D01*
X132264252Y-82070368D01*
X132264255Y-82070368D01*
X132344017Y-82042457D01*
X132384972Y-82035500D01*
X135972299Y-82035500D01*
X136039338Y-82055185D01*
X136073873Y-82088376D01*
X136084466Y-82103504D01*
X136121505Y-82156401D01*
X136288599Y-82323495D01*
X136385384Y-82391265D01*
X136482165Y-82459032D01*
X136482167Y-82459033D01*
X136482170Y-82459035D01*
X136696337Y-82558903D01*
X136924592Y-82620063D01*
X137112918Y-82636539D01*
X137159999Y-82640659D01*
X137160000Y-82640659D01*
X137160001Y-82640659D01*
X137199234Y-82637226D01*
X137395408Y-82620063D01*
X137623663Y-82558903D01*
X137837830Y-82459035D01*
X138031401Y-82323495D01*
X138198495Y-82156401D01*
X138246127Y-82088376D01*
X138300704Y-82044751D01*
X138347701Y-82035500D01*
X141052299Y-82035500D01*
X141119338Y-82055185D01*
X141153873Y-82088376D01*
X141164466Y-82103504D01*
X141201505Y-82156401D01*
X141368599Y-82323495D01*
X141465384Y-82391265D01*
X141562165Y-82459032D01*
X141562167Y-82459033D01*
X141562170Y-82459035D01*
X141776337Y-82558903D01*
X142004592Y-82620063D01*
X142192918Y-82636539D01*
X142239999Y-82640659D01*
X142240000Y-82640659D01*
X142240001Y-82640659D01*
X142279234Y-82637226D01*
X142475408Y-82620063D01*
X142703663Y-82558903D01*
X142917830Y-82459035D01*
X143111401Y-82323495D01*
X143278495Y-82156401D01*
X143326127Y-82088376D01*
X143380704Y-82044751D01*
X143427701Y-82035500D01*
X146132299Y-82035500D01*
X146199338Y-82055185D01*
X146233873Y-82088376D01*
X146244466Y-82103504D01*
X146281505Y-82156401D01*
X146448599Y-82323495D01*
X146545384Y-82391265D01*
X146642165Y-82459032D01*
X146642167Y-82459033D01*
X146642170Y-82459035D01*
X146856337Y-82558903D01*
X147084592Y-82620063D01*
X147272918Y-82636539D01*
X147319999Y-82640659D01*
X147320000Y-82640659D01*
X147320001Y-82640659D01*
X147359234Y-82637226D01*
X147555408Y-82620063D01*
X147783663Y-82558903D01*
X147997830Y-82459035D01*
X148191401Y-82323495D01*
X148358495Y-82156401D01*
X148406127Y-82088376D01*
X148460704Y-82044751D01*
X148507701Y-82035500D01*
X151212299Y-82035500D01*
X151279338Y-82055185D01*
X151313873Y-82088376D01*
X151324466Y-82103504D01*
X151361505Y-82156401D01*
X151528599Y-82323495D01*
X151625384Y-82391265D01*
X151722165Y-82459032D01*
X151722167Y-82459033D01*
X151722170Y-82459035D01*
X151936337Y-82558903D01*
X152164592Y-82620063D01*
X152352918Y-82636539D01*
X152399999Y-82640659D01*
X152400000Y-82640659D01*
X152400001Y-82640659D01*
X152439234Y-82637226D01*
X152635408Y-82620063D01*
X152863663Y-82558903D01*
X153077830Y-82459035D01*
X153271401Y-82323495D01*
X153438495Y-82156401D01*
X153574035Y-81962830D01*
X153673903Y-81748663D01*
X153735063Y-81520408D01*
X153755659Y-81285000D01*
X153735063Y-81049592D01*
X153673903Y-80821337D01*
X153574035Y-80607171D01*
X153570973Y-80602797D01*
X153438494Y-80413597D01*
X153271402Y-80246506D01*
X153271401Y-80246505D01*
X153085405Y-80116269D01*
X153041781Y-80061692D01*
X153034588Y-79992193D01*
X153066110Y-79929839D01*
X153085405Y-79913119D01*
X153271082Y-79783105D01*
X153438105Y-79616082D01*
X153573600Y-79422578D01*
X153673429Y-79208492D01*
X153673432Y-79208486D01*
X153730636Y-78995000D01*
X152833012Y-78995000D01*
X152865925Y-78937993D01*
X152900000Y-78810826D01*
X152900000Y-78679174D01*
X152865925Y-78552007D01*
X152833012Y-78495000D01*
X153730636Y-78495000D01*
X153730635Y-78494999D01*
X153673432Y-78281513D01*
X153673429Y-78281507D01*
X153573600Y-78067422D01*
X153573599Y-78067420D01*
X153438113Y-77873926D01*
X153438108Y-77873920D01*
X153271078Y-77706890D01*
X153085405Y-77576879D01*
X153041780Y-77522302D01*
X153034588Y-77452804D01*
X153066110Y-77390449D01*
X153085406Y-77373730D01*
X153271401Y-77243495D01*
X153438495Y-77076401D01*
X153574035Y-76882830D01*
X153673903Y-76668663D01*
X153735063Y-76440408D01*
X153755659Y-76205000D01*
X153735063Y-75969592D01*
X153673903Y-75741337D01*
X153574035Y-75527171D01*
X153541946Y-75481342D01*
X153438494Y-75333597D01*
X153271402Y-75166506D01*
X153271396Y-75166501D01*
X153085842Y-75036575D01*
X153042217Y-74981998D01*
X153035023Y-74912500D01*
X153066546Y-74850145D01*
X153085842Y-74833425D01*
X153157925Y-74782952D01*
X153271401Y-74703495D01*
X153438495Y-74536401D01*
X153574035Y-74342830D01*
X153673903Y-74128663D01*
X153735063Y-73900408D01*
X153755659Y-73665000D01*
X153735063Y-73429592D01*
X153677664Y-73215372D01*
X153673905Y-73201344D01*
X153673904Y-73201343D01*
X153673903Y-73201337D01*
X153574035Y-72987171D01*
X153550342Y-72953334D01*
X153438496Y-72793600D01*
X153414227Y-72769331D01*
X153316567Y-72671671D01*
X153283084Y-72610351D01*
X153288068Y-72540659D01*
X153329939Y-72484725D01*
X153360915Y-72467810D01*
X153492331Y-72418796D01*
X153607546Y-72332546D01*
X153693796Y-72217331D01*
X153744091Y-72082483D01*
X153750500Y-72022873D01*
X153750499Y-70227128D01*
X153744091Y-70167517D01*
X153693796Y-70032669D01*
X153693795Y-70032668D01*
X153693793Y-70032664D01*
X153607547Y-69917455D01*
X153607544Y-69917452D01*
X153492335Y-69831206D01*
X153492328Y-69831202D01*
X153357482Y-69780908D01*
X153357483Y-69780908D01*
X153297883Y-69774501D01*
X153297881Y-69774500D01*
X153297873Y-69774500D01*
X153297864Y-69774500D01*
X151502129Y-69774500D01*
X151502123Y-69774501D01*
X151442516Y-69780908D01*
X151307671Y-69831202D01*
X151307664Y-69831206D01*
X151192455Y-69917452D01*
X151192452Y-69917455D01*
X151106206Y-70032664D01*
X151106202Y-70032671D01*
X151055908Y-70167517D01*
X151049501Y-70227116D01*
X151049501Y-70227123D01*
X151049500Y-70227135D01*
X151049500Y-70250500D01*
X151029815Y-70317539D01*
X150977011Y-70363294D01*
X150925500Y-70374500D01*
X148794499Y-70374500D01*
X148727460Y-70354815D01*
X148681705Y-70302011D01*
X148670499Y-70250500D01*
X148670499Y-70227129D01*
X148670498Y-70227123D01*
X148670497Y-70227116D01*
X148664091Y-70167517D01*
X148613796Y-70032669D01*
X148613795Y-70032668D01*
X148613793Y-70032664D01*
X148527547Y-69917455D01*
X148527544Y-69917452D01*
X148412335Y-69831206D01*
X148412328Y-69831202D01*
X148277482Y-69780908D01*
X148277483Y-69780908D01*
X148217883Y-69774501D01*
X148217881Y-69774500D01*
X148217873Y-69774500D01*
X148217864Y-69774500D01*
X146422129Y-69774500D01*
X146422123Y-69774501D01*
X146362516Y-69780908D01*
X146227671Y-69831202D01*
X146227664Y-69831206D01*
X146112455Y-69917452D01*
X146112452Y-69917455D01*
X146026206Y-70032664D01*
X146026202Y-70032671D01*
X145975908Y-70167517D01*
X145969501Y-70227116D01*
X145969501Y-70227123D01*
X145969500Y-70227135D01*
X145969500Y-70250500D01*
X145949815Y-70317539D01*
X145897011Y-70363294D01*
X145845500Y-70374500D01*
X143714499Y-70374500D01*
X143647460Y-70354815D01*
X143601705Y-70302011D01*
X143590499Y-70250500D01*
X143590499Y-70227129D01*
X143590498Y-70227123D01*
X143590497Y-70227116D01*
X143584091Y-70167517D01*
X143533796Y-70032669D01*
X143533795Y-70032668D01*
X143533793Y-70032664D01*
X143447547Y-69917455D01*
X143447544Y-69917452D01*
X143332335Y-69831206D01*
X143332328Y-69831202D01*
X143197482Y-69780908D01*
X143197483Y-69780908D01*
X143137883Y-69774501D01*
X143137881Y-69774500D01*
X143137873Y-69774500D01*
X143137864Y-69774500D01*
X141342129Y-69774500D01*
X141342123Y-69774501D01*
X141282516Y-69780908D01*
X141147671Y-69831202D01*
X141147664Y-69831206D01*
X141032455Y-69917452D01*
X141032452Y-69917455D01*
X140946206Y-70032664D01*
X140946202Y-70032671D01*
X140895908Y-70167517D01*
X140889501Y-70227116D01*
X140889501Y-70227123D01*
X140889500Y-70227135D01*
X140889500Y-70250500D01*
X140869815Y-70317539D01*
X140817011Y-70363294D01*
X140765500Y-70374500D01*
X138634499Y-70374500D01*
X138567460Y-70354815D01*
X138521705Y-70302011D01*
X138510499Y-70250500D01*
X138510499Y-70227129D01*
X138510498Y-70227123D01*
X138510497Y-70227116D01*
X138504091Y-70167517D01*
X138453796Y-70032669D01*
X138453795Y-70032668D01*
X138453793Y-70032664D01*
X138367547Y-69917455D01*
X138367544Y-69917452D01*
X138252335Y-69831206D01*
X138252328Y-69831202D01*
X138117482Y-69780908D01*
X138117483Y-69780908D01*
X138057883Y-69774501D01*
X138057881Y-69774500D01*
X138057873Y-69774500D01*
X138057864Y-69774500D01*
X136262129Y-69774500D01*
X136262123Y-69774501D01*
X136202516Y-69780908D01*
X136067671Y-69831202D01*
X136067664Y-69831206D01*
X135952455Y-69917452D01*
X135952452Y-69917455D01*
X135866206Y-70032664D01*
X135866202Y-70032671D01*
X135815908Y-70167517D01*
X135809501Y-70227116D01*
X135809501Y-70227123D01*
X135809500Y-70227135D01*
X135809500Y-70250500D01*
X135789815Y-70317539D01*
X135737011Y-70363294D01*
X135685500Y-70374500D01*
X132447229Y-70374500D01*
X132380190Y-70354815D01*
X132359548Y-70338181D01*
X131288421Y-69267052D01*
X131288414Y-69267046D01*
X131214729Y-69217812D01*
X131214729Y-69217813D01*
X131165491Y-69184913D01*
X131028917Y-69128343D01*
X131028907Y-69128340D01*
X130883920Y-69099500D01*
X130883918Y-69099500D01*
X128126663Y-69099500D01*
X128059624Y-69079815D01*
X128025088Y-69046623D01*
X128000045Y-69010858D01*
X127839141Y-68849954D01*
X127652734Y-68719432D01*
X127652732Y-68719431D01*
X127446497Y-68623261D01*
X127446488Y-68623258D01*
X127226697Y-68564366D01*
X127226693Y-68564365D01*
X127226692Y-68564365D01*
X127226691Y-68564364D01*
X127226686Y-68564364D01*
X127000002Y-68544532D01*
X126999998Y-68544532D01*
X126773313Y-68564364D01*
X126773302Y-68564366D01*
X126553511Y-68623258D01*
X126553502Y-68623261D01*
X126347267Y-68719431D01*
X126347265Y-68719432D01*
X126160858Y-68849954D01*
X125999954Y-69010858D01*
X125974912Y-69046623D01*
X125920335Y-69090248D01*
X125873337Y-69099500D01*
X123046663Y-69099500D01*
X122979624Y-69079815D01*
X122945088Y-69046623D01*
X122920045Y-69010858D01*
X122759141Y-68849954D01*
X122572734Y-68719432D01*
X122572732Y-68719431D01*
X122366497Y-68623261D01*
X122366488Y-68623258D01*
X122146697Y-68564366D01*
X122146693Y-68564365D01*
X122146692Y-68564365D01*
X122146691Y-68564364D01*
X122146686Y-68564364D01*
X121920002Y-68544532D01*
X121919998Y-68544532D01*
X121693313Y-68564364D01*
X121693302Y-68564366D01*
X121473511Y-68623258D01*
X121473502Y-68623261D01*
X121267267Y-68719431D01*
X121267265Y-68719432D01*
X121080858Y-68849954D01*
X120919954Y-69010858D01*
X120894912Y-69046623D01*
X120840335Y-69090248D01*
X120793337Y-69099500D01*
X117966663Y-69099500D01*
X117899624Y-69079815D01*
X117865088Y-69046623D01*
X117840045Y-69010858D01*
X117679141Y-68849954D01*
X117492734Y-68719432D01*
X117492732Y-68719431D01*
X117286497Y-68623261D01*
X117286488Y-68623258D01*
X117066697Y-68564366D01*
X117066693Y-68564365D01*
X117066692Y-68564365D01*
X117066691Y-68564364D01*
X117066686Y-68564364D01*
X116840002Y-68544532D01*
X116839998Y-68544532D01*
X116613313Y-68564364D01*
X116613302Y-68564366D01*
X116393511Y-68623258D01*
X116393502Y-68623261D01*
X116187267Y-68719431D01*
X116187265Y-68719432D01*
X116000858Y-68849954D01*
X115839954Y-69010858D01*
X115814912Y-69046623D01*
X115760335Y-69090248D01*
X115713337Y-69099500D01*
X115496080Y-69099500D01*
X115351092Y-69128340D01*
X115351086Y-69128342D01*
X115214508Y-69184914D01*
X115214496Y-69184921D01*
X115165269Y-69217813D01*
X115091588Y-69267044D01*
X115091580Y-69267050D01*
X112945451Y-71413181D01*
X112884128Y-71446666D01*
X112857770Y-71449500D01*
X111642230Y-71449500D01*
X111575191Y-71429815D01*
X111554549Y-71413181D01*
X111498657Y-71357289D01*
X111498656Y-71357288D01*
X111349334Y-71265186D01*
X111182797Y-71210001D01*
X111182795Y-71210000D01*
X111080010Y-71199500D01*
X107979998Y-71199500D01*
X107979981Y-71199501D01*
X107877203Y-71210000D01*
X107877200Y-71210001D01*
X107710668Y-71265185D01*
X107710663Y-71265187D01*
X107561342Y-71357289D01*
X107437289Y-71481342D01*
X107345187Y-71630663D01*
X107345186Y-71630666D01*
X107290001Y-71797203D01*
X107290001Y-71797204D01*
X107290000Y-71797204D01*
X107279500Y-71899983D01*
X102100500Y-71899983D01*
X102100500Y-71218973D01*
X102120185Y-71151934D01*
X102172989Y-71106179D01*
X102237104Y-71095615D01*
X102280017Y-71099999D01*
X102280027Y-71100000D01*
X103530000Y-71100000D01*
X104030000Y-71100000D01*
X105279973Y-71100000D01*
X105279985Y-71099999D01*
X105382689Y-71089506D01*
X105382696Y-71089505D01*
X105549118Y-71034358D01*
X105549123Y-71034356D01*
X105698344Y-70942315D01*
X105822315Y-70818344D01*
X105914356Y-70669123D01*
X105914358Y-70669118D01*
X105969505Y-70502696D01*
X105969506Y-70502689D01*
X105979999Y-70399985D01*
X105980000Y-70399972D01*
X105980000Y-70100000D01*
X104030000Y-70100000D01*
X104030000Y-71100000D01*
X103530000Y-71100000D01*
X103530000Y-69600000D01*
X104030000Y-69600000D01*
X105980000Y-69600000D01*
X105980000Y-69300027D01*
X105979999Y-69300014D01*
X105969506Y-69197310D01*
X105969505Y-69197303D01*
X105914358Y-69030881D01*
X105914356Y-69030876D01*
X105822315Y-68881655D01*
X105698344Y-68757684D01*
X105549123Y-68665643D01*
X105549118Y-68665641D01*
X105382696Y-68610494D01*
X105382689Y-68610493D01*
X105279985Y-68600000D01*
X104030000Y-68600000D01*
X104030000Y-69600000D01*
X103530000Y-69600000D01*
X103530000Y-68600000D01*
X102280009Y-68600000D01*
X102237101Y-68604384D01*
X102168408Y-68591614D01*
X102117524Y-68543733D01*
X102100500Y-68481026D01*
X102100500Y-66664500D01*
X102120185Y-66597461D01*
X102172989Y-66551706D01*
X102224500Y-66540500D01*
X154315500Y-66540500D01*
X154382539Y-66560185D01*
G37*
G04 #@! TD.AperFunction*
M02*
