G04 #@! TF.GenerationSoftware,KiCad,Pcbnew,8.0.3+1*
G04 #@! TF.CreationDate,2024-08-19T07:27:42+00:00*
G04 #@! TF.ProjectId,DDT_i2c_proto_breakboard,4444545f-6932-4635-9f70-726f746f5f62,r1*
G04 #@! TF.SameCoordinates,Original*
G04 #@! TF.FileFunction,Legend,Bot*
G04 #@! TF.FilePolarity,Positive*
%FSLAX46Y46*%
G04 Gerber Fmt 4.6, Leading zero omitted, Abs format (unit mm)*
G04 Created by KiCad (PCBNEW 8.0.3+1) date 2024-08-19 07:27:42*
%MOMM*%
%LPD*%
G01*
G04 APERTURE LIST*
%ADD10C,0.150000*%
%ADD11C,0.120000*%
%ADD12R,1.700000X1.700000*%
%ADD13O,1.700000X1.700000*%
%ADD14C,1.600000*%
%ADD15O,1.600000X1.600000*%
G04 APERTURE END LIST*
D10*
X115474819Y-76033333D02*
X114998628Y-75700000D01*
X115474819Y-75461905D02*
X114474819Y-75461905D01*
X114474819Y-75461905D02*
X114474819Y-75842857D01*
X114474819Y-75842857D02*
X114522438Y-75938095D01*
X114522438Y-75938095D02*
X114570057Y-75985714D01*
X114570057Y-75985714D02*
X114665295Y-76033333D01*
X114665295Y-76033333D02*
X114808152Y-76033333D01*
X114808152Y-76033333D02*
X114903390Y-75985714D01*
X114903390Y-75985714D02*
X114951009Y-75938095D01*
X114951009Y-75938095D02*
X114998628Y-75842857D01*
X114998628Y-75842857D02*
X114998628Y-75461905D01*
X115474819Y-76985714D02*
X115474819Y-76414286D01*
X115474819Y-76700000D02*
X114474819Y-76700000D01*
X114474819Y-76700000D02*
X114617676Y-76604762D01*
X114617676Y-76604762D02*
X114712914Y-76509524D01*
X114712914Y-76509524D02*
X114760533Y-76414286D01*
X120554819Y-76033333D02*
X120078628Y-75700000D01*
X120554819Y-75461905D02*
X119554819Y-75461905D01*
X119554819Y-75461905D02*
X119554819Y-75842857D01*
X119554819Y-75842857D02*
X119602438Y-75938095D01*
X119602438Y-75938095D02*
X119650057Y-75985714D01*
X119650057Y-75985714D02*
X119745295Y-76033333D01*
X119745295Y-76033333D02*
X119888152Y-76033333D01*
X119888152Y-76033333D02*
X119983390Y-75985714D01*
X119983390Y-75985714D02*
X120031009Y-75938095D01*
X120031009Y-75938095D02*
X120078628Y-75842857D01*
X120078628Y-75842857D02*
X120078628Y-75461905D01*
X119554819Y-76366667D02*
X119554819Y-76985714D01*
X119554819Y-76985714D02*
X119935771Y-76652381D01*
X119935771Y-76652381D02*
X119935771Y-76795238D01*
X119935771Y-76795238D02*
X119983390Y-76890476D01*
X119983390Y-76890476D02*
X120031009Y-76938095D01*
X120031009Y-76938095D02*
X120126247Y-76985714D01*
X120126247Y-76985714D02*
X120364342Y-76985714D01*
X120364342Y-76985714D02*
X120459580Y-76938095D01*
X120459580Y-76938095D02*
X120507200Y-76890476D01*
X120507200Y-76890476D02*
X120554819Y-76795238D01*
X120554819Y-76795238D02*
X120554819Y-76509524D01*
X120554819Y-76509524D02*
X120507200Y-76414286D01*
X120507200Y-76414286D02*
X120459580Y-76366667D01*
X125634819Y-76033333D02*
X125158628Y-75700000D01*
X125634819Y-75461905D02*
X124634819Y-75461905D01*
X124634819Y-75461905D02*
X124634819Y-75842857D01*
X124634819Y-75842857D02*
X124682438Y-75938095D01*
X124682438Y-75938095D02*
X124730057Y-75985714D01*
X124730057Y-75985714D02*
X124825295Y-76033333D01*
X124825295Y-76033333D02*
X124968152Y-76033333D01*
X124968152Y-76033333D02*
X125063390Y-75985714D01*
X125063390Y-75985714D02*
X125111009Y-75938095D01*
X125111009Y-75938095D02*
X125158628Y-75842857D01*
X125158628Y-75842857D02*
X125158628Y-75461905D01*
X124634819Y-76938095D02*
X124634819Y-76461905D01*
X124634819Y-76461905D02*
X125111009Y-76414286D01*
X125111009Y-76414286D02*
X125063390Y-76461905D01*
X125063390Y-76461905D02*
X125015771Y-76557143D01*
X125015771Y-76557143D02*
X125015771Y-76795238D01*
X125015771Y-76795238D02*
X125063390Y-76890476D01*
X125063390Y-76890476D02*
X125111009Y-76938095D01*
X125111009Y-76938095D02*
X125206247Y-76985714D01*
X125206247Y-76985714D02*
X125444342Y-76985714D01*
X125444342Y-76985714D02*
X125539580Y-76938095D01*
X125539580Y-76938095D02*
X125587200Y-76890476D01*
X125587200Y-76890476D02*
X125634819Y-76795238D01*
X125634819Y-76795238D02*
X125634819Y-76557143D01*
X125634819Y-76557143D02*
X125587200Y-76461905D01*
X125587200Y-76461905D02*
X125539580Y-76414286D01*
D11*
X115930000Y-76927064D02*
X115930000Y-75472936D01*
X117750000Y-76927064D02*
X117750000Y-75472936D01*
X121010000Y-76927064D02*
X121010000Y-75472936D01*
X122830000Y-76927064D02*
X122830000Y-75472936D01*
X126090000Y-76927064D02*
X126090000Y-75472936D01*
X127910000Y-76927064D02*
X127910000Y-75472936D01*
%LPC*%
D12*
X142240000Y-71125000D03*
D13*
X142240000Y-73665000D03*
X142240000Y-76205000D03*
X142240000Y-78745000D03*
X142240000Y-81285000D03*
D12*
X147320000Y-71125000D03*
D13*
X147320000Y-73665000D03*
X147320000Y-76205000D03*
X147320000Y-78745000D03*
X147320000Y-81285000D03*
D12*
X137160000Y-71125000D03*
D13*
X137160000Y-73665000D03*
X137160000Y-76205000D03*
X137160000Y-78745000D03*
X137160000Y-81285000D03*
D14*
X121920000Y-69850000D03*
D15*
X121920000Y-82550000D03*
D14*
X127000000Y-69850000D03*
D15*
X127000000Y-82550000D03*
D14*
X116840000Y-69850000D03*
D15*
X116840000Y-82550000D03*
D12*
X152400000Y-71125000D03*
D13*
X152400000Y-73665000D03*
X152400000Y-76205000D03*
X152400000Y-78745000D03*
X152400000Y-81285000D03*
G36*
G01*
X116215000Y-74000000D02*
X117465000Y-74000000D01*
G75*
G02*
X117715000Y-74250000I0J-250000D01*
G01*
X117715000Y-75050000D01*
G75*
G02*
X117465000Y-75300000I-250000J0D01*
G01*
X116215000Y-75300000D01*
G75*
G02*
X115965000Y-75050000I0J250000D01*
G01*
X115965000Y-74250000D01*
G75*
G02*
X116215000Y-74000000I250000J0D01*
G01*
G37*
G36*
G01*
X116215000Y-77100000D02*
X117465000Y-77100000D01*
G75*
G02*
X117715000Y-77350000I0J-250000D01*
G01*
X117715000Y-78150000D01*
G75*
G02*
X117465000Y-78400000I-250000J0D01*
G01*
X116215000Y-78400000D01*
G75*
G02*
X115965000Y-78150000I0J250000D01*
G01*
X115965000Y-77350000D01*
G75*
G02*
X116215000Y-77100000I250000J0D01*
G01*
G37*
G36*
G01*
X121295000Y-74000000D02*
X122545000Y-74000000D01*
G75*
G02*
X122795000Y-74250000I0J-250000D01*
G01*
X122795000Y-75050000D01*
G75*
G02*
X122545000Y-75300000I-250000J0D01*
G01*
X121295000Y-75300000D01*
G75*
G02*
X121045000Y-75050000I0J250000D01*
G01*
X121045000Y-74250000D01*
G75*
G02*
X121295000Y-74000000I250000J0D01*
G01*
G37*
G36*
G01*
X121295000Y-77100000D02*
X122545000Y-77100000D01*
G75*
G02*
X122795000Y-77350000I0J-250000D01*
G01*
X122795000Y-78150000D01*
G75*
G02*
X122545000Y-78400000I-250000J0D01*
G01*
X121295000Y-78400000D01*
G75*
G02*
X121045000Y-78150000I0J250000D01*
G01*
X121045000Y-77350000D01*
G75*
G02*
X121295000Y-77100000I250000J0D01*
G01*
G37*
G36*
G01*
X126375000Y-74000000D02*
X127625000Y-74000000D01*
G75*
G02*
X127875000Y-74250000I0J-250000D01*
G01*
X127875000Y-75050000D01*
G75*
G02*
X127625000Y-75300000I-250000J0D01*
G01*
X126375000Y-75300000D01*
G75*
G02*
X126125000Y-75050000I0J250000D01*
G01*
X126125000Y-74250000D01*
G75*
G02*
X126375000Y-74000000I250000J0D01*
G01*
G37*
G36*
G01*
X126375000Y-77100000D02*
X127625000Y-77100000D01*
G75*
G02*
X127875000Y-77350000I0J-250000D01*
G01*
X127875000Y-78150000D01*
G75*
G02*
X127625000Y-78400000I-250000J0D01*
G01*
X126375000Y-78400000D01*
G75*
G02*
X126125000Y-78150000I0J250000D01*
G01*
X126125000Y-77350000D01*
G75*
G02*
X126375000Y-77100000I250000J0D01*
G01*
G37*
%LPD*%
M02*
